<svg width="32" height="32" viewBox="0 0 32 32" fill="none" xmlns="http://www.w3.org/2000/svg">
<rect width="32" height="32" rx="16" fill="#C1C7D0"/>
<circle cx="16.1699" cy="10.851" r="5.85102" fill="white"/>
<mask id="mask0_1231_16822" style="mask-type:alpha" maskUnits="userSpaceOnUse" x="5" y="6" width="23" height="23">
<circle cx="16.1701" cy="17.8303" r="11.1701" fill="white"/>
</mask>
<g mask="url(#mask0_1231_16822)">
<path d="M6.82817 23.8558L7.73287 21.5226C8.32978 19.9832 9.81122 18.9688 11.4623 18.9688H21.1049C22.7457 18.9688 24.2202 19.9709 24.8241 21.4966L25.7524 23.8418C25.7754 23.8998 25.8228 23.9446 25.882 23.9644C25.9989 24.0033 26.0577 24.1337 26.0096 24.2472L25.082 26.4337C24.8083 27.0787 24.2669 27.5723 23.5994 27.7854L16.6063 30.0172C15.5374 30.3583 14.3745 30.2349 13.401 29.6769L7.74019 26.4323C6.96632 25.9887 6.55791 25.104 6.72229 24.2273C6.74607 24.1005 6.78151 23.9761 6.82817 23.8558Z" fill="white"/>
</g>
</svg>
